# xmcd
#
# Track frame offsets:
#	150
#	13067
#	36200
#	53040
#	65717
#	78295
#	91029
#	102835
#	121162
#	135662
#
# Disc length: 2031 seconds
#
# Revision: 3
# Processed by: cddbd v1.5.2PL0 Copyright (c) Steve Scherf et al.
# Submitted via: audiograbber 1.83.01
#
DISCID=7807ed0a
DTITLE=Various Artist - All Night Long - Blues Box 5
DYEAR=1900
DGENRE=Blues
TTITLE0=Ray Charles - Blues Before Sunrise
TTITLE1=Howlin' Wolf - Red Rooster
TTITLE2=Memphis Slim - Just Let Me Be
TTITLE3=Ray Charles - Rockin' Chair Blues
TTITLE4=John Lee Hooker - Crawling King Snake
TTITLE5=Lena Horne - Sometimes I Feel Like A Motherless Child
TTITLE6=John Lee Hooker - Boom Boom
TTITLE7=Lightnin' Hopkins - I've Had My Fun If I Don't Get Well No More
TTITLE8=Magic Sam - Magic Blues
TTITLE9=Mississippi John Hurt - Lonesome Blues
EXTD=
EXTT0=
EXTT1=
EXTT2=
EXTT3=
EXTT4=
EXTT5=
EXTT6=
EXTT7=
EXTT8=
EXTT9=
PLAYORDER=
